<mxfile host="app.diagrams.net" modified="2023-02-26T09:17:47.432Z" agent="5.0 (Windows NT 10.0; Win64; x64) AppleWebKit/537.36 (KHTML, like Gecko) Chrome/110.0.0.0 Safari/537.36 Edg/110.0.1587.56" etag="zZVodpCx9_BBDMum3x7G" version="20.7.4" type="github">
  <diagram id="PhAfU-EF1F7rNx4GUBeK" name="第 1 页">
    <mxGraphModel dx="1002" dy="573" grid="1" gridSize="10" guides="1" tooltips="1" connect="1" arrows="1" fold="1" page="1" pageScale="1" pageWidth="827" pageHeight="1169" math="0" shadow="0">
      <root>
        <mxCell id="0" />
        <mxCell id="1" parent="0" />
        <mxCell id="ELARRrECwAgM5zcuZOIW-1" value="" style="rounded=1;whiteSpace=wrap;html=1;fillStyle=auto;opacity=50;labelBorderColor=none;movable=1;resizable=1;rotatable=1;deletable=1;editable=1;connectable=1;" vertex="1" parent="1">
          <mxGeometry width="770" height="560" as="geometry" />
        </mxCell>
        <mxCell id="ELARRrECwAgM5zcuZOIW-2" value="&lt;font style=&quot;font-size: 18px;&quot;&gt;数&lt;br&gt;据&lt;br&gt;获&lt;br&gt;取&lt;br&gt;模&lt;br&gt;块&lt;/font&gt;" style="rounded=1;whiteSpace=wrap;html=1;fillStyle=auto;gradientColor=none;opacity=50;align=center;fontFamily=宋体;" vertex="1" parent="1">
          <mxGeometry x="40" y="140" width="50" height="330" as="geometry" />
        </mxCell>
        <mxCell id="ELARRrECwAgM5zcuZOIW-14" value="" style="group;rounded=0;strokeWidth=0;" vertex="1" connectable="0" parent="1">
          <mxGeometry x="140" y="130" width="283" height="350" as="geometry" />
        </mxCell>
        <mxCell id="ELARRrECwAgM5zcuZOIW-12" value="" style="rounded=1;whiteSpace=wrap;html=1;labelBorderColor=none;fillStyle=auto;strokeColor=#666666;fontFamily=Lucida Console;fontSize=18;opacity=60;fillColor=#f5f5f5;container=0;fontColor=#333333;movable=1;resizable=1;rotatable=1;deletable=1;editable=1;connectable=1;" vertex="1" parent="ELARRrECwAgM5zcuZOIW-14">
          <mxGeometry x="20" width="250" height="340" as="geometry" />
        </mxCell>
        <mxCell id="ELARRrECwAgM5zcuZOIW-4" value="&lt;span style=&quot;font-size: 18px;&quot;&gt;图&lt;br&gt;片&lt;br&gt;分&lt;br&gt;割&lt;br&gt;模&lt;br&gt;块&lt;/span&gt;" style="rounded=1;whiteSpace=wrap;html=1;fillStyle=auto;gradientColor=none;opacity=50;align=center;fontFamily=宋体;" vertex="1" parent="ELARRrECwAgM5zcuZOIW-14">
          <mxGeometry x="40" y="20" width="50" height="150" as="geometry" />
        </mxCell>
        <mxCell id="ELARRrECwAgM5zcuZOIW-5" value="&lt;span style=&quot;font-size: 18px;&quot;&gt;关键&lt;br&gt;用电&lt;br&gt;设备&lt;br&gt;状态&lt;br&gt;识别&lt;br&gt;模块&lt;/span&gt;" style="rounded=1;whiteSpace=wrap;html=1;fillStyle=auto;gradientColor=none;opacity=50;align=center;fontFamily=宋体;" vertex="1" parent="ELARRrECwAgM5zcuZOIW-14">
          <mxGeometry x="180" y="20" width="70" height="150" as="geometry" />
        </mxCell>
        <mxCell id="ELARRrECwAgM5zcuZOIW-6" value="&lt;span&gt;&lt;font face=&quot;宋体&quot; style=&quot;font-size: 18px;&quot;&gt;配电所环境识别模块&lt;/font&gt;&lt;/span&gt;" style="rounded=1;whiteSpace=wrap;html=1;fillStyle=auto;gradientColor=none;opacity=50;align=center;" vertex="1" parent="ELARRrECwAgM5zcuZOIW-14">
          <mxGeometry x="40" y="180" width="210" height="50" as="geometry" />
        </mxCell>
        <mxCell id="ELARRrECwAgM5zcuZOIW-11" value="&lt;font face=&quot;宋体&quot;&gt;火灾识别模块&lt;/font&gt;" style="rounded=1;whiteSpace=wrap;html=1;fillStyle=auto;gradientColor=none;opacity=50;align=center;labelBorderColor=none;strokeColor=default;fontFamily=Lucida Console;fontSize=18;" vertex="1" parent="ELARRrECwAgM5zcuZOIW-14">
          <mxGeometry x="40" y="250" width="210" height="50" as="geometry" />
        </mxCell>
        <mxCell id="ELARRrECwAgM5zcuZOIW-24" value="" style="shape=flexArrow;endArrow=classic;html=1;rounded=0;fontFamily=Lucida Console;fontSize=18;entryX=0;entryY=0.5;entryDx=0;entryDy=0;" edge="1" parent="ELARRrECwAgM5zcuZOIW-14" source="ELARRrECwAgM5zcuZOIW-4" target="ELARRrECwAgM5zcuZOIW-5">
          <mxGeometry width="50" height="50" relative="1" as="geometry">
            <mxPoint x="100" y="160" as="sourcePoint" />
            <mxPoint x="150" y="110" as="targetPoint" />
          </mxGeometry>
        </mxCell>
        <mxCell id="ELARRrECwAgM5zcuZOIW-26" value="&lt;font style=&quot;font-size: 16px;&quot; face=&quot;宋体&quot;&gt;深度学习模块&lt;/font&gt;" style="rounded=1;whiteSpace=wrap;html=1;fillStyle=auto;gradientColor=none;opacity=0;align=left;labelBorderColor=none;strokeColor=default;fontFamily=Lucida Console;fontSize=18;" vertex="1" parent="ELARRrECwAgM5zcuZOIW-14">
          <mxGeometry x="53" y="310" width="109.25" height="30" as="geometry" />
        </mxCell>
        <mxCell id="ELARRrECwAgM5zcuZOIW-15" value="&lt;span&gt;&lt;font face=&quot;宋体&quot;&gt;数据存储模块&lt;/font&gt;&lt;/span&gt;" style="rounded=1;whiteSpace=wrap;html=1;fillStyle=auto;gradientColor=none;opacity=50;align=center;labelBorderColor=none;strokeColor=default;fontFamily=Lucida Console;fontSize=18;" vertex="1" parent="1">
          <mxGeometry x="470" y="410" width="280" height="120" as="geometry" />
        </mxCell>
        <mxCell id="ELARRrECwAgM5zcuZOIW-16" value="&lt;span&gt;&lt;font face=&quot;宋体&quot;&gt;数据访问模块&lt;/font&gt;&lt;/span&gt;" style="rounded=1;whiteSpace=wrap;html=1;fillStyle=auto;gradientColor=none;opacity=50;align=center;labelBorderColor=none;strokeColor=default;fontFamily=Lucida Console;fontSize=18;" vertex="1" parent="1">
          <mxGeometry x="470" y="260" width="280" height="82.5" as="geometry" />
        </mxCell>
        <mxCell id="ELARRrECwAgM5zcuZOIW-17" value="&lt;span&gt;&lt;font face=&quot;宋体&quot;&gt;用户操作模块&lt;/font&gt;&lt;/span&gt;" style="rounded=1;whiteSpace=wrap;html=1;fillStyle=auto;gradientColor=none;opacity=50;align=center;labelBorderColor=none;strokeColor=default;fontFamily=Lucida Console;fontSize=18;" vertex="1" parent="1">
          <mxGeometry x="95" y="40" width="580" height="50" as="geometry" />
        </mxCell>
        <mxCell id="ELARRrECwAgM5zcuZOIW-18" value="&lt;span&gt;&lt;font face=&quot;宋体&quot;&gt;告警信息模块&lt;/font&gt;&lt;/span&gt;" style="rounded=1;whiteSpace=wrap;html=1;fillStyle=auto;gradientColor=none;opacity=50;align=center;labelBorderColor=none;strokeColor=default;fontFamily=Lucida Console;fontSize=18;" vertex="1" parent="1">
          <mxGeometry x="570" y="150" width="190" height="50" as="geometry" />
        </mxCell>
        <mxCell id="ELARRrECwAgM5zcuZOIW-19" value="" style="shape=flexArrow;endArrow=classic;startArrow=classic;html=1;rounded=0;fontFamily=Lucida Console;fontSize=18;entryX=0.5;entryY=1;entryDx=0;entryDy=0;exitX=0.5;exitY=0;exitDx=0;exitDy=0;" edge="1" parent="1" source="ELARRrECwAgM5zcuZOIW-15" target="ELARRrECwAgM5zcuZOIW-16">
          <mxGeometry width="100" height="100" relative="1" as="geometry">
            <mxPoint x="540" y="450" as="sourcePoint" />
            <mxPoint x="640" y="350" as="targetPoint" />
          </mxGeometry>
        </mxCell>
        <mxCell id="ELARRrECwAgM5zcuZOIW-20" value="" style="shape=flexArrow;endArrow=classic;startArrow=classic;html=1;rounded=0;fontFamily=Lucida Console;fontSize=18;entryX=0.75;entryY=1;entryDx=0;entryDy=0;" edge="1" parent="1" target="ELARRrECwAgM5zcuZOIW-17">
          <mxGeometry width="100" height="100" relative="1" as="geometry">
            <mxPoint x="530" y="260" as="sourcePoint" />
            <mxPoint x="570" y="140" as="targetPoint" />
          </mxGeometry>
        </mxCell>
        <mxCell id="ELARRrECwAgM5zcuZOIW-21" value="" style="shape=flexArrow;endArrow=classic;html=1;rounded=0;fontFamily=Lucida Console;fontSize=18;entryX=0.5;entryY=1;entryDx=0;entryDy=0;exitX=0.696;exitY=0;exitDx=0;exitDy=0;exitPerimeter=0;" edge="1" parent="1" source="ELARRrECwAgM5zcuZOIW-16" target="ELARRrECwAgM5zcuZOIW-18">
          <mxGeometry width="50" height="50" relative="1" as="geometry">
            <mxPoint x="640" y="280" as="sourcePoint" />
            <mxPoint x="690" y="230" as="targetPoint" />
          </mxGeometry>
        </mxCell>
        <mxCell id="ELARRrECwAgM5zcuZOIW-23" value="" style="shape=flexArrow;endArrow=classic;html=1;rounded=0;fontFamily=Lucida Console;fontSize=18;entryX=0;entryY=0.5;entryDx=0;entryDy=0;" edge="1" parent="1" target="ELARRrECwAgM5zcuZOIW-12">
          <mxGeometry width="50" height="50" relative="1" as="geometry">
            <mxPoint x="90" y="300" as="sourcePoint" />
            <mxPoint x="160" y="300" as="targetPoint" />
          </mxGeometry>
        </mxCell>
        <mxCell id="ELARRrECwAgM5zcuZOIW-25" value="" style="shape=flexArrow;endArrow=classic;html=1;rounded=0;fontFamily=Lucida Console;fontSize=18;exitX=1;exitY=0.5;exitDx=0;exitDy=0;" edge="1" parent="1" source="ELARRrECwAgM5zcuZOIW-12">
          <mxGeometry width="50" height="50" relative="1" as="geometry">
            <mxPoint x="430" y="340" as="sourcePoint" />
            <mxPoint x="470" y="300" as="targetPoint" />
          </mxGeometry>
        </mxCell>
        <mxCell id="ELARRrECwAgM5zcuZOIW-28" value="基于深度学习的用电安全管理类隐患分析系统" style="rounded=1;whiteSpace=wrap;html=1;fillStyle=auto;gradientColor=none;opacity=0;align=center;labelBorderColor=none;strokeColor=default;fontFamily=宋体;fontSize=18;strokeWidth=0;" vertex="1" parent="1">
          <mxGeometry x="50" y="490" width="370" height="50" as="geometry" />
        </mxCell>
      </root>
    </mxGraphModel>
  </diagram>
</mxfile>
